# Segelphysik Export (Y-up, Meter)
o rumpf
v -4.5000 0.8000 -1.1100
v -4.5000 0.6148 -1.0040
v -4.5000 0.4296 -0.8820
v -4.5000 0.2444 -0.7349
v -4.5000 0.0592 -0.5380
v -4.5000 -0.1260 -0.0000
v -4.5000 0.0592 0.5380
v -4.5000 0.2444 0.7349
v -4.5000 0.4296 0.8820
v -4.5000 0.6148 1.0040
v -4.5000 0.8000 1.1100
v -4.1400 0.8000 -1.1668
v -4.1400 0.6104 -1.0554
v -4.1400 0.4207 -0.9272
v -4.1400 0.2311 -0.7726
v -4.1400 0.0414 -0.5656
v -4.1400 -0.1482 -0.0000
v -4.1400 0.0414 0.5656
v -4.1400 0.2311 0.7726
v -4.1400 0.4207 0.9272
v -4.1400 0.6104 1.0554
v -4.1400 0.8000 1.1668
v -3.7800 0.8000 -1.2189
v -3.7800 0.6061 -1.1025
v -3.7800 0.4122 -0.9686
v -3.7800 0.2183 -0.8071
v -3.7800 0.0244 -0.5908
v -3.7800 -0.1695 -0.0000
v -3.7800 0.0244 0.5908
v -3.7800 0.2183 0.8071
v -3.7800 0.4122 0.9686
v -3.7800 0.6061 1.1025
v -3.7800 0.8000 1.2189
v -3.4200 0.8000 -1.2663
v -3.4200 0.6020 -1.1453
v -3.4200 0.4041 -1.0062
v -3.4200 0.2061 -0.8384
v -3.4200 0.0082 -0.6138
v -3.4200 -0.1898 -0.0000
v -3.4200 0.0082 0.6138
v -3.4200 0.2061 0.8384
v -3.4200 0.4041 1.0062
v -3.4200 0.6020 1.1453
v -3.4200 0.8000 1.2663
v -3.0600 0.8000 -1.3089
v -3.0600 0.5982 -1.1839
v -3.0600 0.3964 -1.0401
v -3.0600 0.1946 -0.8666
v -3.0600 -0.0072 -0.6344
v -3.0600 -0.2090 -0.0000
v -3.0600 -0.0072 0.6344
v -3.0600 0.1946 0.8666
v -3.0600 0.3964 1.0401
v -3.0600 0.5982 1.1839
v -3.0600 0.8000 1.3089
v -2.7000 0.8000 -1.3468
v -2.7000 0.5946 -1.2181
v -2.7000 0.3891 -1.0702
v -2.7000 0.1837 -0.8917
v -2.7000 -0.0217 -0.6528
v -2.7000 -0.2272 -0.0000
v -2.7000 -0.0217 0.6528
v -2.7000 0.1837 0.8917
v -2.7000 0.3891 1.0702
v -2.7000 0.5946 1.2181
v -2.7000 0.8000 1.3468
v -2.3400 0.8000 -1.3800
v -2.3400 0.5912 -1.2481
v -2.3400 0.3823 -1.0966
v -2.3400 0.1735 -0.9137
v -2.3400 -0.0353 -0.6688
v -2.3400 -0.2441 -0.0000
v -2.3400 -0.0353 0.6688
v -2.3400 0.1735 0.9137
v -2.3400 0.3823 1.0966
v -2.3400 0.5912 1.2481
v -2.3400 0.8000 1.3800
v -1.9800 0.8000 -1.4084
v -1.9800 0.5880 -1.2738
v -1.9800 0.3761 -1.1191
v -1.9800 0.1641 -0.9325
v -1.9800 -0.0479 -0.6826
v -1.9800 -0.2598 -0.0000
v -1.9800 -0.0479 0.6826
v -1.9800 0.1641 0.9325
v -1.9800 0.3761 1.1191
v -1.9800 0.5880 1.2738
v -1.9800 0.8000 1.4084
v -1.6200 0.8000 -1.4320
v -1.6200 0.5852 -1.2952
v -1.6200 0.3703 -1.1380
v -1.6200 0.1555 -0.9482
v -1.6200 -0.0593 -0.6941
v -1.6200 -0.2742 -0.0000
v -1.6200 -0.0593 0.6941
v -1.6200 0.1555 0.9482
v -1.6200 0.3703 1.1380
v -1.6200 0.5852 1.2952
v -1.6200 0.8000 1.4320
v -1.2600 0.8000 -1.4510
v -1.2600 0.5826 -1.3124
v -1.2600 0.3652 -1.1530
v -1.2600 0.1478 -0.9607
v -1.2600 -0.0696 -0.7033
v -1.2600 -0.2870 -0.0000
v -1.2600 -0.0696 0.7033
v -1.2600 0.1478 0.9607
v -1.2600 0.3652 1.1530
v -1.2600 0.5826 1.3124
v -1.2600 0.8000 1.4510
v -0.9000 0.8000 -1.4652
v -0.9000 0.5804 -1.3252
v -0.9000 0.3608 -1.1643
v -0.9000 0.1411 -0.9701
v -0.9000 -0.0785 -0.7102
v -0.9000 -0.2981 -0.0000
v -0.9000 -0.0785 0.7102
v -0.9000 0.1411 0.9701
v -0.9000 0.3608 1.1643
v -0.9000 0.5804 1.3252
v -0.9000 0.8000 1.4652
v -0.5400 0.8000 -1.4747
v -0.5400 0.5786 -1.3338
v -0.5400 0.3571 -1.1718
v -0.5400 0.1357 -0.9764
v -0.5400 -0.0857 -0.7148
v -0.5400 -0.3071 -0.0000
v -0.5400 -0.0857 0.7148
v -0.5400 0.1357 0.9764
v -0.5400 0.3571 1.1718
v -0.5400 0.5786 1.3338
v -0.5400 0.8000 1.4747
v -0.1800 0.8000 -1.4794
v -0.1800 0.5773 -1.3381
v -0.1800 0.3546 -1.1756
v -0.1800 0.1319 -0.9795
v -0.1800 -0.0908 -0.7171
v -0.1800 -0.3135 -0.0000
v -0.1800 -0.0908 0.7171
v -0.1800 0.1319 0.9795
v -0.1800 0.3546 1.1756
v -0.1800 0.5773 1.3381
v -0.1800 0.8000 1.4794
v 0.1800 0.8000 -1.4731
v 0.1800 0.5774 -1.3324
v 0.1800 0.3547 -1.1706
v 0.1800 0.1321 -0.9754
v 0.1800 -0.0906 -0.7140
v 0.1800 -0.3132 -0.0000
v 0.1800 -0.0906 0.7140
v 0.1800 0.1321 0.9754
v 0.1800 0.3547 1.1706
v 0.1800 0.5774 1.3324
v 0.1800 0.8000 1.4731
v 0.5400 0.8000 -1.4400
v 0.5400 0.5788 -1.3025
v 0.5400 0.3577 -1.1443
v 0.5400 0.1365 -0.9535
v 0.5400 -0.0846 -0.6980
v 0.5400 -0.3058 -0.0000
v 0.5400 -0.0846 0.6980
v 0.5400 0.1365 0.9535
v 0.5400 0.3577 1.1443
v 0.5400 0.5788 1.3025
v 0.5400 0.8000 1.4400
v 0.9000 0.8000 -1.3891
v 0.9000 0.5810 -1.2564
v 0.9000 0.3620 -1.1039
v 0.9000 0.1430 -0.9198
v 0.9000 -0.0760 -0.6733
v 0.9000 -0.2950 -0.0000
v 0.9000 -0.0760 0.6733
v 0.9000 0.1430 0.9198
v 0.9000 0.3620 1.1039
v 0.9000 0.5810 1.2564
v 0.9000 0.8000 1.3891
v 1.2600 0.8000 -1.3234
v 1.2600 0.5837 -1.1970
v 1.2600 0.3674 -1.0516
v 1.2600 0.1511 -0.8762
v 1.2600 -0.0652 -0.6414
v 1.2600 -0.2816 -0.0000
v 1.2600 -0.0652 0.6414
v 1.2600 0.1511 0.8762
v 1.2600 0.3674 1.0516
v 1.2600 0.5837 1.1970
v 1.2600 0.8000 1.3234
v 1.6200 0.8000 -1.2442
v 1.6200 0.5869 -1.1253
v 1.6200 0.3737 -0.9887
v 1.6200 0.1606 -0.8238
v 1.6200 -0.0525 -0.6030
v 1.6200 -0.2657 -0.0000
v 1.6200 -0.0525 0.6030
v 1.6200 0.1606 0.8238
v 1.6200 0.3737 0.9887
v 1.6200 0.5869 1.1253
v 1.6200 0.8000 1.2442
v 1.9800 0.8000 -1.1520
v 1.9800 0.5905 -1.0420
v 1.9800 0.3810 -0.9154
v 1.9800 0.1716 -0.7628
v 1.9800 -0.0379 -0.5584
v 1.9800 -0.2474 -0.0000
v 1.9800 -0.0379 0.5584
v 1.9800 0.1716 0.7628
v 1.9800 0.3810 0.9154
v 1.9800 0.5905 1.0420
v 1.9800 0.8000 1.1520
v 2.3400 0.8000 -1.0470
v 2.3400 0.5947 -0.9469
v 2.3400 0.3893 -0.8319
v 2.3400 0.1840 -0.6932
v 2.3400 -0.0214 -0.5074
v 2.3400 -0.2267 -0.0000
v 2.3400 -0.0214 0.5074
v 2.3400 0.1840 0.6932
v 2.3400 0.3893 0.8319
v 2.3400 0.5947 0.9469
v 2.3400 0.8000 1.0470
v 2.7000 0.8000 -0.9286
v 2.7000 0.5993 -0.8398
v 2.7000 0.3987 -0.7379
v 2.7000 0.1980 -0.6148
v 2.7000 -0.0027 -0.4501
v 2.7000 -0.2034 -0.0000
v 2.7000 -0.0027 0.4501
v 2.7000 0.1980 0.6148
v 2.7000 0.3987 0.7379
v 2.7000 0.5993 0.8398
v 2.7000 0.8000 0.9286
v 3.0600 0.8000 -0.7958
v 3.0600 0.6046 -0.7198
v 3.0600 0.4092 -0.6324
v 3.0600 0.2137 -0.5269
v 3.0600 0.0183 -0.3857
v 3.0600 -0.1771 -0.0000
v 3.0600 0.0183 0.3857
v 3.0600 0.2137 0.5269
v 3.0600 0.4092 0.6324
v 3.0600 0.6046 0.7198
v 3.0600 0.8000 0.7958
v 3.4200 0.8000 -0.6469
v 3.4200 0.6106 -0.5851
v 3.4200 0.4211 -0.5140
v 3.4200 0.2317 -0.4283
v 3.4200 0.0422 -0.3135
v 3.4200 -0.1472 -0.0000
v 3.4200 0.0422 0.3135
v 3.4200 0.2317 0.4283
v 3.4200 0.4211 0.5140
v 3.4200 0.6106 0.5851
v 3.4200 0.8000 0.6469
v 3.7800 0.8000 -0.4779
v 3.7800 0.6175 -0.4323
v 3.7800 0.4349 -0.3798
v 3.7800 0.2524 -0.3164
v 3.7800 0.0699 -0.2316
v 3.7800 -0.1126 -0.0000
v 3.7800 0.0699 0.2316
v 3.7800 0.2524 0.3164
v 3.7800 0.4349 0.3798
v 3.7800 0.6175 0.4323
v 3.7800 0.8000 0.4779
v 4.1400 0.8000 -0.2802
v 4.1400 0.6259 -0.2534
v 4.1400 0.4518 -0.2227
v 4.1400 0.2778 -0.1855
v 4.1400 0.1037 -0.1358
v 4.1400 -0.0704 -0.0000
v 4.1400 0.1037 0.1358
v 4.1400 0.2778 0.1855
v 4.1400 0.4518 0.2227
v 4.1400 0.6259 0.2534
v 4.1400 0.8000 0.2802
v 4.5000 0.8000 -0.0000
v 4.5000 0.6400 -0.0000
v 4.5000 0.4800 -0.0000
v 4.5000 0.3200 -0.0000
v 4.5000 0.1600 -0.0000
v 4.5000 0.0000 -0.0000
v 4.5000 0.1600 0.0000
v 4.5000 0.3200 0.0000
v 4.5000 0.4800 0.0000
v 4.5000 0.6400 0.0000
v 4.5000 0.8000 0.0000
f 1 2 13 12
f 2 3 14 13
f 3 4 15 14
f 4 5 16 15
f 5 6 17 16
f 6 7 18 17
f 7 8 19 18
f 8 9 20 19
f 9 10 21 20
f 10 11 22 21
f 12 13 24 23
f 13 14 25 24
f 14 15 26 25
f 15 16 27 26
f 16 17 28 27
f 17 18 29 28
f 18 19 30 29
f 19 20 31 30
f 20 21 32 31
f 21 22 33 32
f 23 24 35 34
f 24 25 36 35
f 25 26 37 36
f 26 27 38 37
f 27 28 39 38
f 28 29 40 39
f 29 30 41 40
f 30 31 42 41
f 31 32 43 42
f 32 33 44 43
f 34 35 46 45
f 35 36 47 46
f 36 37 48 47
f 37 38 49 48
f 38 39 50 49
f 39 40 51 50
f 40 41 52 51
f 41 42 53 52
f 42 43 54 53
f 43 44 55 54
f 45 46 57 56
f 46 47 58 57
f 47 48 59 58
f 48 49 60 59
f 49 50 61 60
f 50 51 62 61
f 51 52 63 62
f 52 53 64 63
f 53 54 65 64
f 54 55 66 65
f 56 57 68 67
f 57 58 69 68
f 58 59 70 69
f 59 60 71 70
f 60 61 72 71
f 61 62 73 72
f 62 63 74 73
f 63 64 75 74
f 64 65 76 75
f 65 66 77 76
f 67 68 79 78
f 68 69 80 79
f 69 70 81 80
f 70 71 82 81
f 71 72 83 82
f 72 73 84 83
f 73 74 85 84
f 74 75 86 85
f 75 76 87 86
f 76 77 88 87
f 78 79 90 89
f 79 80 91 90
f 80 81 92 91
f 81 82 93 92
f 82 83 94 93
f 83 84 95 94
f 84 85 96 95
f 85 86 97 96
f 86 87 98 97
f 87 88 99 98
f 89 90 101 100
f 90 91 102 101
f 91 92 103 102
f 92 93 104 103
f 93 94 105 104
f 94 95 106 105
f 95 96 107 106
f 96 97 108 107
f 97 98 109 108
f 98 99 110 109
f 100 101 112 111
f 101 102 113 112
f 102 103 114 113
f 103 104 115 114
f 104 105 116 115
f 105 106 117 116
f 106 107 118 117
f 107 108 119 118
f 108 109 120 119
f 109 110 121 120
f 111 112 123 122
f 112 113 124 123
f 113 114 125 124
f 114 115 126 125
f 115 116 127 126
f 116 117 128 127
f 117 118 129 128
f 118 119 130 129
f 119 120 131 130
f 120 121 132 131
f 122 123 134 133
f 123 124 135 134
f 124 125 136 135
f 125 126 137 136
f 126 127 138 137
f 127 128 139 138
f 128 129 140 139
f 129 130 141 140
f 130 131 142 141
f 131 132 143 142
f 133 134 145 144
f 134 135 146 145
f 135 136 147 146
f 136 137 148 147
f 137 138 149 148
f 138 139 150 149
f 139 140 151 150
f 140 141 152 151
f 141 142 153 152
f 142 143 154 153
f 144 145 156 155
f 145 146 157 156
f 146 147 158 157
f 147 148 159 158
f 148 149 160 159
f 149 150 161 160
f 150 151 162 161
f 151 152 163 162
f 152 153 164 163
f 153 154 165 164
f 155 156 167 166
f 156 157 168 167
f 157 158 169 168
f 158 159 170 169
f 159 160 171 170
f 160 161 172 171
f 161 162 173 172
f 162 163 174 173
f 163 164 175 174
f 164 165 176 175
f 166 167 178 177
f 167 168 179 178
f 168 169 180 179
f 169 170 181 180
f 170 171 182 181
f 171 172 183 182
f 172 173 184 183
f 173 174 185 184
f 174 175 186 185
f 175 176 187 186
f 177 178 189 188
f 178 179 190 189
f 179 180 191 190
f 180 181 192 191
f 181 182 193 192
f 182 183 194 193
f 183 184 195 194
f 184 185 196 195
f 185 186 197 196
f 186 187 198 197
f 188 189 200 199
f 189 190 201 200
f 190 191 202 201
f 191 192 203 202
f 192 193 204 203
f 193 194 205 204
f 194 195 206 205
f 195 196 207 206
f 196 197 208 207
f 197 198 209 208
f 199 200 211 210
f 200 201 212 211
f 201 202 213 212
f 202 203 214 213
f 203 204 215 214
f 204 205 216 215
f 205 206 217 216
f 206 207 218 217
f 207 208 219 218
f 208 209 220 219
f 210 211 222 221
f 211 212 223 222
f 212 213 224 223
f 213 214 225 224
f 214 215 226 225
f 215 216 227 226
f 216 217 228 227
f 217 218 229 228
f 218 219 230 229
f 219 220 231 230
f 221 222 233 232
f 222 223 234 233
f 223 224 235 234
f 224 225 236 235
f 225 226 237 236
f 226 227 238 237
f 227 228 239 238
f 228 229 240 239
f 229 230 241 240
f 230 231 242 241
f 232 233 244 243
f 233 234 245 244
f 234 235 246 245
f 235 236 247 246
f 236 237 248 247
f 237 238 249 248
f 238 239 250 249
f 239 240 251 250
f 240 241 252 251
f 241 242 253 252
f 243 244 255 254
f 244 245 256 255
f 245 246 257 256
f 246 247 258 257
f 247 248 259 258
f 248 249 260 259
f 249 250 261 260
f 250 251 262 261
f 251 252 263 262
f 252 253 264 263
f 254 255 266 265
f 255 256 267 266
f 256 257 268 267
f 257 258 269 268
f 258 259 270 269
f 259 260 271 270
f 260 261 272 271
f 261 262 273 272
f 262 263 274 273
f 263 264 275 274
f 265 266 277 276
f 266 267 278 277
f 267 268 279 278
f 268 269 280 279
f 269 270 281 280
f 270 271 282 281
f 271 272 283 282
f 272 273 284 283
f 273 274 285 284
f 274 275 286 285
