# Segelphysik Export (Y-up, Meter)
o fin
v -1.1115 0.3021 0.0421
v -0.1215 0.3021 0.0421
v -0.1215 0.3021 -0.0421
v -1.1115 0.3021 -0.0421
v -0.9333 -0.9737 0.0248
v -0.2700 -0.9737 0.0248
v -0.2700 -0.9737 -0.0248
v -0.9333 -0.9737 -0.0248
f 1 2 3 4
f 5 6 7 8
f 1 2 6 5
f 2 3 7 6
f 3 4 8 7
f 4 1 5 8
o bulb
v -0.4680 -0.9110 -0.0000
v -0.4680 -0.9110 -0.0000
v -0.4680 -0.9110 -0.0000
v -0.4680 -0.9110 -0.0000
v -0.4680 -0.9110 -0.0000
v -0.4680 -0.9110 -0.0000
v -0.4680 -0.9110 -0.0000
v -0.4680 -0.9110 -0.0000
v -0.4680 -0.9110 0.0000
v -0.4680 -0.9110 0.0000
v -0.4680 -0.9110 0.0000
v -0.4680 -0.9110 0.0000
v -0.4680 -0.9110 0.0000
v -0.4680 -0.9110 0.0000
v -0.4680 -0.9110 0.0000
v -0.2028 -0.9229 -0.0000
v -0.2291 -0.9229 -0.0260
v -0.3027 -0.9229 -0.0469
v -0.4090 -0.9229 -0.0585
v -0.5270 -0.9229 -0.0585
v -0.6334 -0.9229 -0.0469
v -0.7070 -0.9229 -0.0260
v -0.7332 -0.9229 -0.0000
v -0.7070 -0.9229 0.0260
v -0.6334 -0.9229 0.0469
v -0.5270 -0.9229 0.0585
v -0.4090 -0.9229 0.0585
v -0.3027 -0.9229 0.0469
v -0.2291 -0.9229 0.0260
v -0.2028 -0.9229 0.0000
v 0.0220 -0.9569 -0.0000
v -0.0265 -0.9569 -0.0481
v -0.1625 -0.9569 -0.0867
v -0.3590 -0.9569 -0.1081
v -0.5771 -0.9569 -0.1081
v -0.7735 -0.9569 -0.0867
v -0.9095 -0.9569 -0.0481
v -0.9580 -0.9569 -0.0000
v -0.9095 -0.9569 0.0481
v -0.7735 -0.9569 0.0867
v -0.5771 -0.9569 0.1081
v -0.3590 -0.9569 0.1081
v -0.1625 -0.9569 0.0867
v -0.0265 -0.9569 0.0481
v 0.0220 -0.9569 0.0000
v 0.1722 -1.0077 -0.0000
v 0.1088 -1.0077 -0.0628
v -0.0688 -1.0077 -0.1132
v -0.3256 -1.0077 -0.1412
v -0.6105 -1.0077 -0.1412
v -0.8672 -1.0077 -0.1132
v -1.0449 -1.0077 -0.0628
v -1.1083 -1.0077 -0.0000
v -1.0449 -1.0077 0.0628
v -0.8672 -1.0077 0.1132
v -0.6105 -1.0077 0.1412
v -0.3256 -1.0077 0.1412
v -0.0688 -1.0077 0.1132
v 0.1088 -1.0077 0.0628
v 0.1722 -1.0077 0.0000
v 0.2250 -1.0677 -0.0000
v 0.1564 -1.0677 -0.0680
v -0.0359 -1.0677 -0.1226
v -0.3138 -1.0677 -0.1529
v -0.6222 -1.0677 -0.1529
v -0.9001 -1.0677 -0.1226
v -1.0924 -1.0677 -0.0680
v -1.1610 -1.0677 -0.0000
v -1.0924 -1.0677 0.0680
v -0.9001 -1.0677 0.1226
v -0.6222 -1.0677 0.1529
v -0.3138 -1.0677 0.1529
v -0.0359 -1.0677 0.1226
v 0.1564 -1.0677 0.0680
v 0.2250 -1.0677 0.0000
v 0.1722 -1.1277 -0.0000
v 0.1088 -1.1277 -0.0628
v -0.0688 -1.1277 -0.1132
v -0.3256 -1.1277 -0.1412
v -0.6105 -1.1277 -0.1412
v -0.8672 -1.1277 -0.1132
v -1.0449 -1.1277 -0.0628
v -1.1083 -1.1277 -0.0000
v -1.0449 -1.1277 0.0628
v -0.8672 -1.1277 0.1132
v -0.6105 -1.1277 0.1412
v -0.3256 -1.1277 0.1412
v -0.0688 -1.1277 0.1132
v 0.1088 -1.1277 0.0628
v 0.1722 -1.1277 0.0000
v 0.0220 -1.1786 -0.0000
v -0.0265 -1.1786 -0.0481
v -0.1625 -1.1786 -0.0867
v -0.3590 -1.1786 -0.1081
v -0.5771 -1.1786 -0.1081
v -0.7735 -1.1786 -0.0867
v -0.9095 -1.1786 -0.0481
v -0.9580 -1.1786 -0.0000
v -0.9095 -1.1786 0.0481
v -0.7735 -1.1786 0.0867
v -0.5771 -1.1786 0.1081
v -0.3590 -1.1786 0.1081
v -0.1625 -1.1786 0.0867
v -0.0265 -1.1786 0.0481
v 0.0220 -1.1786 0.0000
v -0.2028 -1.2126 -0.0000
v -0.2291 -1.2126 -0.0260
v -0.3027 -1.2126 -0.0469
v -0.4090 -1.2126 -0.0585
v -0.5270 -1.2126 -0.0585
v -0.6334 -1.2126 -0.0469
v -0.7070 -1.2126 -0.0260
v -0.7332 -1.2126 -0.0000
v -0.7070 -1.2126 0.0260
v -0.6334 -1.2126 0.0469
v -0.5270 -1.2126 0.0585
v -0.4090 -1.2126 0.0585
v -0.3027 -1.2126 0.0469
v -0.2291 -1.2126 0.0260
v -0.2028 -1.2126 0.0000
v -0.4680 -1.2245 -0.0000
v -0.4680 -1.2245 -0.0000
v -0.4680 -1.2245 -0.0000
v -0.4680 -1.2245 -0.0000
v -0.4680 -1.2245 -0.0000
v -0.4680 -1.2245 -0.0000
v -0.4680 -1.2245 -0.0000
v -0.4680 -1.2245 -0.0000
v -0.4680 -1.2245 0.0000
v -0.4680 -1.2245 0.0000
v -0.4680 -1.2245 0.0000
v -0.4680 -1.2245 0.0000
v -0.4680 -1.2245 0.0000
v -0.4680 -1.2245 0.0000
v -0.4680 -1.2245 0.0000
f 9 10 25 24
f 10 11 26 25
f 11 12 27 26
f 12 13 28 27
f 13 14 29 28
f 14 15 30 29
f 15 16 31 30
f 16 17 32 31
f 17 18 33 32
f 18 19 34 33
f 19 20 35 34
f 20 21 36 35
f 21 22 37 36
f 22 23 38 37
f 24 25 40 39
f 25 26 41 40
f 26 27 42 41
f 27 28 43 42
f 28 29 44 43
f 29 30 45 44
f 30 31 46 45
f 31 32 47 46
f 32 33 48 47
f 33 34 49 48
f 34 35 50 49
f 35 36 51 50
f 36 37 52 51
f 37 38 53 52
f 39 40 55 54
f 40 41 56 55
f 41 42 57 56
f 42 43 58 57
f 43 44 59 58
f 44 45 60 59
f 45 46 61 60
f 46 47 62 61
f 47 48 63 62
f 48 49 64 63
f 49 50 65 64
f 50 51 66 65
f 51 52 67 66
f 52 53 68 67
f 54 55 70 69
f 55 56 71 70
f 56 57 72 71
f 57 58 73 72
f 58 59 74 73
f 59 60 75 74
f 60 61 76 75
f 61 62 77 76
f 62 63 78 77
f 63 64 79 78
f 64 65 80 79
f 65 66 81 80
f 66 67 82 81
f 67 68 83 82
f 69 70 85 84
f 70 71 86 85
f 71 72 87 86
f 72 73 88 87
f 73 74 89 88
f 74 75 90 89
f 75 76 91 90
f 76 77 92 91
f 77 78 93 92
f 78 79 94 93
f 79 80 95 94
f 80 81 96 95
f 81 82 97 96
f 82 83 98 97
f 84 85 100 99
f 85 86 101 100
f 86 87 102 101
f 87 88 103 102
f 88 89 104 103
f 89 90 105 104
f 90 91 106 105
f 91 92 107 106
f 92 93 108 107
f 93 94 109 108
f 94 95 110 109
f 95 96 111 110
f 96 97 112 111
f 97 98 113 112
f 99 100 115 114
f 100 101 116 115
f 101 102 117 116
f 102 103 118 117
f 103 104 119 118
f 104 105 120 119
f 105 106 121 120
f 106 107 122 121
f 107 108 123 122
f 108 109 124 123
f 109 110 125 124
f 110 111 126 125
f 111 112 127 126
f 112 113 128 127
f 114 115 130 129
f 115 116 131 130
f 116 117 132 131
f 117 118 133 132
f 118 119 134 133
f 119 120 135 134
f 120 121 136 135
f 121 122 137 136
f 122 123 138 137
f 123 124 139 138
f 124 125 140 139
f 125 126 141 140
f 126 127 142 141
f 127 128 143 142
o ruder
v -4.6800 -0.1218 0.0136
v -4.1355 -0.1218 0.0136
v -4.1355 -0.1218 -0.0136
v -4.6800 -0.1218 -0.0136
v -4.5983 -1.0148 0.0095
v -4.1899 -1.0148 0.0095
v -4.1899 -1.0148 -0.0095
v -4.5983 -1.0148 -0.0095
f 144 145 146 147
f 148 149 150 151
f 144 145 149 148
f 145 146 150 149
f 146 147 151 150
f 147 144 148 151
